<svg width="256" height="256" viewBox="0 0 256 256" fill="none" xmlns="http://www.w3.org/2000/svg">
<rect width="256" height="256" fill="white"/>
<path d="M167.567 243.847C169.023 244.286 170.597 243.759 171.5 242.53L178.306 233.263C178.824 232.558 179.103 231.704 179.103 230.828V229.994C179.103 229.144 178.681 228.351 177.977 227.879C177.562 227.601 177.074 227.453 176.575 227.453H176.343C175.306 227.453 174.33 227.943 173.708 228.777L165.485 239.795C165.17 240.217 165 240.73 165 241.258C165 242.335 165.703 243.285 166.73 243.595L167.567 243.847Z" fill="#031C1D"/>
<path d="M227 187.544C227.002 187.224 226.741 186.998 226.423 187C196.244 187.175 168.012 201.164 177.187 223.834C177.276 224.054 177.494 224.204 177.73 224.204H178.856C179.014 224.204 179.164 224.142 179.275 224.03C180.929 222.358 194.176 209.157 204.077 205.011C210.938 202.138 213.596 201.377 214.617 201.197C214.954 201.137 215.029 201.356 214.769 201.579C206.925 208.306 185.962 225.727 186.155 225.976C186.309 226.176 184.043 229.163 183.066 230.432C182.839 230.726 182.955 231.164 183.287 231.328C216.005 247.48 226.923 198.928 227 187.544Z" fill="#031C1D"/>
<path d="M167.567 243.847C169.023 244.286 170.597 243.759 171.5 242.53L178.306 233.263C178.824 232.558 179.103 231.704 179.103 230.828V229.994C179.103 229.144 178.681 228.351 177.977 227.879C177.562 227.601 177.074 227.453 176.575 227.453H176.343C175.306 227.453 174.33 227.943 173.708 228.777L165.485 239.795C165.17 240.217 165 240.73 165 241.258C165 242.335 165.703 243.285 166.73 243.595L167.567 243.847Z" stroke="#031C1D"/>
<path d="M227 187.544C227.002 187.224 226.741 186.998 226.423 187C196.244 187.175 168.012 201.164 177.187 223.834C177.276 224.054 177.494 224.204 177.73 224.204H178.856C179.014 224.204 179.164 224.142 179.275 224.03C180.929 222.358 194.176 209.157 204.077 205.011C210.938 202.138 213.596 201.377 214.617 201.197C214.954 201.137 215.029 201.356 214.769 201.579C206.925 208.306 185.962 225.727 186.155 225.976C186.309 226.176 184.043 229.163 183.066 230.432C182.839 230.726 182.955 231.164 183.287 231.328C216.005 247.48 226.923 198.928 227 187.544Z" stroke="#031C1D"/>
<path d="M166.526 241.847C167.958 242.286 169.507 241.759 170.395 240.53L177.091 231.263C177.601 230.558 177.876 229.704 177.876 228.828V227.994C177.876 227.144 177.46 226.351 176.768 225.879C176.359 225.601 175.879 225.453 175.388 225.453H175.16C174.14 225.453 173.179 225.943 172.567 226.777L164.478 237.795C164.168 238.217 164 238.73 164 239.258C164 240.335 164.692 241.285 165.702 241.595L166.526 241.847Z" fill="#275927"/>
<path d="M225 185.544C225.002 185.224 224.745 184.998 224.432 185C194.74 185.175 166.963 199.164 175.991 221.834C176.078 222.054 176.292 222.204 176.524 222.204H177.633C177.788 222.204 177.935 222.142 178.045 222.03C179.672 220.358 192.706 207.157 202.447 203.011C209.197 200.138 211.812 199.377 212.816 199.197C213.148 199.137 213.222 199.356 212.966 199.579C205.249 206.306 184.624 223.727 184.813 223.976C184.965 224.176 182.736 227.163 181.774 228.432C181.552 228.726 181.666 229.164 181.992 229.328C214.182 245.48 224.925 196.928 225 185.544Z" fill="#275927"/>
<path d="M166.526 241.847C167.958 242.286 169.507 241.759 170.395 240.53L177.091 231.263C177.601 230.558 177.876 229.704 177.876 228.828V227.994C177.876 227.144 177.46 226.351 176.768 225.879C176.359 225.601 175.879 225.453 175.388 225.453H175.16C174.14 225.453 173.179 225.943 172.567 226.777L164.478 237.795C164.168 238.217 164 238.73 164 239.258C164 240.335 164.692 241.285 165.702 241.595L166.526 241.847Z" stroke="#275927"/>
<path d="M225 185.544C225.002 185.224 224.745 184.998 224.432 185C194.74 185.175 166.963 199.164 175.991 221.834C176.078 222.054 176.292 222.204 176.524 222.204H177.633C177.788 222.204 177.935 222.142 178.045 222.03C179.672 220.358 192.706 207.157 202.447 203.011C209.197 200.138 211.812 199.377 212.816 199.197C213.148 199.137 213.222 199.356 212.966 199.579C205.249 206.306 184.624 223.727 184.813 223.976C184.965 224.176 182.736 227.163 181.774 228.432C181.552 228.726 181.666 229.164 181.992 229.328C214.182 245.48 224.925 196.928 225 185.544Z" stroke="#275927"/>
<path d="M89.664 176V165.5H103.384V88.5H89.664V78H127.884C140.764 78 150.704 81.2667 157.704 87.8C164.797 94.3333 168.344 104.367 168.344 117.9V136.1C168.344 149.727 164.797 159.807 157.704 166.34C150.704 172.78 140.764 176 127.884 176H89.664ZM115.144 165.36H127.884C137.404 165.36 144.591 163.027 149.444 158.36C154.297 153.693 156.724 146.46 156.724 136.66V117.48C156.724 107.493 154.297 100.213 149.444 95.64C144.591 91.0667 137.404 88.78 127.884 88.78H115.144V165.36Z" fill="#275927"/>
<path d="M64 206V45C64 43.3431 65.3431 42 67 42H159.757C160.553 42 161.316 42.3161 161.879 42.8787L190.121 71.1213C190.684 71.6839 191 72.447 191 73.2426V206C191 207.657 189.657 209 188 209H67C65.3431 209 64 207.657 64 206Z" stroke="#275927" stroke-width="5"/>
</svg>
